<?xml version="1.0" encoding="UTF-8"?>
<svg width="106px" height="123px" viewBox="0 0 106 123" version="1.1" xmlns="http://www.w3.org/2000/svg" xmlns:xlink="http://www.w3.org/1999/xlink">
    <!-- Generator: Sketch 49 (51002) - http://www.bohemiancoding.com/sketch -->
    <title>logox</title>
    <desc>Created with Sketch.</desc>
    <defs></defs>
    <g id="Page-1" stroke="none" stroke-width="1" fill="none" fill-rule="evenodd">
        <g id="logo" transform="translate(-2.000000, -2.000000)">
            <g id="_688883880">
                <circle id="_359664464" fill="#FFFFFF" cx="63.213" cy="63.5" r="15.5964"></circle>
                <circle id="_359722648" fill="#303030" cx="63.213" cy="63.501" r="13.8843"></circle>
                <path d="M81.337,19.324 C81.8894,26.6356 79.113,34.9396 72.0049,42.0543 C71.9481,31.997 75.8073,24.1368 81.337,19.324 Z" id="_359726680" fill="#969594"></path>
                <path d="M79.757,23.167 C79.3104,27.673 77.3296,33.1098 73.5848,38.2115 C74.5035,31.9475 76.9115,26.6858 79.757,23.167 Z" id="_359718056" fill="#E5ECFA"></path>
                <path d="M82.485,16.502 C84.7535,17.4317 85.8414,20.0253 84.9106,22.2965 C83.9809,24.565 81.3858,25.6492 79.1173,24.7195 C76.8487,23.7898 75.7608,21.1962 76.6905,18.9277 C77.6213,16.6565 80.2164,15.5723 82.485,16.502 Z" id="_359721136" fill="#FFFFFF"></path>
                <circle id="_359707472" fill="#FFFFFF" transform="translate(88.127573, 38.113125) rotate(22.284850) translate(-88.127573, -38.113125) " cx="74.7095305" cy="24.6950828" r="2.73270676"></circle>
                <path d="M63.217,6.0484 C69.7925,16.6742 70.9627,30.8419 63.217,45.8951 C55.4688,30.8419 56.639,16.6742 63.217,6.0484 Z" id="_359709992" fill="#303030"></path>
                <path d="M63.217,9.2361 C67.6827,18.1618 68.4774,30.0627 63.217,42.7074 C57.9548,30.0627 58.7495,18.1618 63.217,9.2361 Z" id="_359665808" fill="#FE8E28"></path>
                <path d="M63.216,2.9679 C65.6677,2.9679 67.6578,4.9552 67.6578,7.4098 C67.6578,9.8614 65.6677,11.8487 63.216,11.8487 C60.7643,11.8487 58.7742,9.8614 58.7742,7.4098 C58.7742,4.9552 60.7643,2.9679 63.216,2.9679 Z" id="_359720912" fill="#303030"></path>
                <circle id="_359685184" fill="#DA251D" cx="63.215" cy="7.407" r="2.73271"></circle>
                <path d="M63.216,16.439 C66.7211,23.4448 67.3449,32.7857 63.216,42.7105 C59.0858,32.7857 59.7096,23.4448 63.216,16.439 Z" id="_359701984" fill="#FF7100"></path>
                <path d="M63.216,23.891 C65.7275,28.9108 66.1745,35.6039 63.216,42.7153 C60.2565,35.6039 60.7035,28.9108 63.216,23.891 Z" id="_359715312" fill="#E42023"></path>
                <path d="M63.217,6.0484 C69.7925,16.6742 70.9627,30.8419 63.217,45.8951 C55.4688,30.8419 56.639,16.6742 63.217,6.0484 Z" id="_359698568" fill="#FFFFFF"></path>
                <path d="M63.217,9.2361 C67.6827,18.1618 68.4774,30.0627 63.217,42.7074 C57.9548,30.0627 58.7495,18.1618 63.217,9.2361 Z" id="_359664296" fill="#FE8E28"></path>
                <path d="M63.216,2.9679 C65.6677,2.9679 67.6578,4.9552 67.6578,7.4098 C67.6578,9.8614 65.6677,11.8487 63.216,11.8487 C60.7643,11.8487 58.7742,9.8614 58.7742,7.4098 C58.7742,4.9552 60.7643,2.9679 63.216,2.9679 Z" id="_359681040" fill="#FFFFFF"></path>
                <circle id="_359697728" fill="#FFFFFF" cx="63.215" cy="7.407" r="2.73271"></circle>
                <path d="M63.216,16.439 C66.7211,23.4448 67.3449,32.7857 63.216,42.7105 C59.0858,32.7857 59.7096,23.4448 63.216,16.439 Z" id="_705660592" fill="#FF7100"></path>
                <path d="M63.216,23.891 C65.7275,28.9108 66.1745,35.6039 63.216,42.7153 C60.2565,35.6039 60.7035,28.9108 63.216,23.891 Z" id="_705671512" fill="#E42023"></path>
                <path d="M103.841,22.879 C100.977,35.0422 91.7864,45.8877 75.6651,51.0549 C80.8305,34.9318 91.676,25.7412 103.841,22.879 Z" id="_705627440" fill="#303030"></path>
                <path d="M101.587,25.133 C98.4333,34.6021 90.58,43.5793 77.9192,48.8008 C83.1394,36.1387 92.1166,28.2855 101.587,25.133 Z" id="_705651856" fill="#FE8E28"></path>
                <path d="M106.018,20.7 C107.7516,22.4336 107.7536,25.2461 106.018,26.9817 C104.2844,28.7153 101.4719,28.7132 99.7383,26.9796 C98.0047,25.2461 98.0027,22.4336 99.7363,20.7 C101.4719,18.9644 104.2844,18.9664 106.018,20.7 Z" id="_705690160" fill="#303030"></path>
                <circle id="_705628392" fill="#DA251D" transform="translate(102.878000, 42.812970) rotate(45.000000) translate(-102.878000, -42.812970) " cx="89.4599626" cy="29.3949331" r="2.73270574"></circle>
                <path d="M96.493,30.225 C94.0177,37.6573 87.8537,44.7035 77.9163,48.8018 C82.0136,38.8634 89.0598,32.6994 96.493,30.225 Z" id="_705651072" fill="#FF7100"></path>
                <path d="M91.223,35.494 C89.4494,40.8195 85.0327,45.8682 77.9123,48.8048 C80.8481,41.6836 85.8969,37.267 91.223,35.494 Z" id="_359726792" fill="#E42023"></path>
                <path d="M103.841,22.879 C100.977,35.0422 91.7864,45.8877 75.6651,51.0549 C80.8305,34.9318 91.676,25.7412 103.841,22.879 Z" id="_359714304" fill="#FFFFFF"></path>
                <path d="M101.587,25.133 C98.4333,34.6021 90.58,43.5793 77.9192,48.8008 C83.1394,36.1387 92.1166,28.2855 101.587,25.133 Z" id="_359703888" fill="#FE8E28"></path>
                <path d="M106.018,20.7 C107.7516,22.4336 107.7536,25.2461 106.018,26.9817 C104.2844,28.7153 101.4719,28.7132 99.7383,26.9796 C98.0047,25.2461 98.0027,22.4336 99.7363,20.7 C101.4719,18.9644 104.2844,18.9664 106.018,20.7 Z" id="_359726008" fill="#FFFFFF"></path>
                <circle id="_359711168" fill="#FFFFFF" transform="translate(102.878000, 42.812970) rotate(45.000000) translate(-102.878000, -42.812970) " cx="89.4599626" cy="29.3949331" r="2.73270574"></circle>
                <path d="M96.493,30.225 C94.0177,37.6573 87.8537,44.7035 77.9163,48.8018 C82.0136,38.8634 89.0598,32.6994 96.493,30.225 Z" id="_359678352" fill="#FF7100"></path>
                <path d="M91.223,35.494 C89.4494,40.8195 85.0327,45.8682 77.9123,48.8048 C80.8481,41.6836 85.8969,37.267 91.223,35.494 Z" id="_359677120" fill="#E42023"></path>
                <path d="M103.834,104.127 C91.6709,101.263 80.8254,92.0724 75.6582,75.9511 C91.7813,81.1165 100.9719,91.962 103.834,104.127 Z" id="_359698736" fill="#303030"></path>
                <path d="M101.581,101.873 C92.1119,98.7193 83.1347,90.866 77.9132,78.2052 C90.5753,83.4254 98.4285,92.4026 101.581,101.873 Z" id="_359704840" fill="#FE8E28"></path>
                <path d="M106.013,106.305 C104.2794,108.0386 101.4669,108.0406 99.7313,106.305 C97.9977,104.5714 97.9998,101.7589 99.7334,100.0253 C101.4669,98.2917 104.2794,98.2897 106.013,100.0233 C107.7486,101.7589 107.7466,104.5714 106.013,106.305 Z" id="_359678296" fill="#303030"></path>
                <circle id="_359683392" fill="#DA251D" transform="translate(83.900030, 103.165000) rotate(135.000000) translate(-83.900030, -103.165000) " cx="70.4819921" cy="89.7469626" r="2.73270574"></circle>
                <path d="M96.488,96.779 C89.0557,94.3037 82.0095,88.1398 77.9112,78.2023 C87.8496,82.2996 94.0136,89.3458 96.488,96.779 Z" id="_359701088" fill="#FF7100"></path>
                <path d="M91.219,91.509 C85.8935,89.7354 80.8448,85.3187 77.9082,78.1983 C85.0294,81.1341 89.446,86.1829 91.219,91.509 Z" id="_359677624" fill="#E42023"></path>
                <path d="M103.834,104.127 C91.6709,101.263 80.8254,92.0724 75.6582,75.9511 C91.7813,81.1165 100.9719,91.962 103.834,104.127 Z" id="_359702320" fill="#FFFFFF"></path>
                <path d="M101.581,101.873 C92.1119,98.7193 83.1347,90.866 77.9132,78.2052 C90.5753,83.4254 98.4285,92.4026 101.581,101.873 Z" id="_359715816" fill="#FE8E28"></path>
                <path d="M106.013,106.305 C104.2794,108.0386 101.4669,108.0406 99.7313,106.305 C97.9977,104.5714 97.9998,101.7589 99.7334,100.0253 C101.4669,98.2917 104.2794,98.2897 106.013,100.0233 C107.7486,101.7589 107.7466,104.5714 106.013,106.305 Z" id="_359704448" fill="#FFFFFF"></path>
                <circle id="_359726960" fill="#FFFFFF" transform="translate(83.900030, 103.165000) rotate(135.000000) translate(-83.900030, -103.165000) " cx="70.4819921" cy="89.7469626" r="2.73270574"></circle>
                <path d="M96.488,96.779 C89.0557,94.3037 82.0095,88.1398 77.9112,78.2023 C87.8496,82.2996 94.0136,89.3458 96.488,96.779 Z" id="_359691400" fill="#FF7100"></path>
                <path d="M91.219,91.509 C85.8935,89.7354 80.8448,85.3187 77.9082,78.1983 C85.0294,81.1341 89.446,86.1829 91.219,91.509 Z" id="_359661888" fill="#E42023"></path>
                <path d="M63.209,120.952 C56.6336,110.3262 55.4633,96.1585 63.209,81.1053 C70.9573,96.1585 69.7871,110.3262 63.209,120.952 Z" id="_359665304" fill="#303030"></path>
                <path d="M63.209,117.764 C58.7433,108.8383 57.9486,96.9374 63.209,84.2927 C68.4712,96.9374 67.6764,108.8383 63.209,117.764 Z" id="_359679864" fill="#FE8E28"></path>
                <path d="M63.21,124.032 C60.7583,124.032 58.7682,122.0447 58.7682,119.5901 C58.7682,117.1385 60.7583,115.1512 63.21,115.1512 C65.6616,115.1512 67.6518,117.1385 67.6518,119.5901 C67.6518,122.0447 65.6616,124.032 63.21,124.032 Z" id="_359688320" fill="#303030"></path>
                <circle id="_359705456" fill="#DA251D" cx="63.212" cy="119.593" r="2.73271"></circle>
                <path d="M63.21,110.561 C59.7049,103.5552 59.0811,94.2143 63.21,84.2895 C67.3402,94.2143 66.7164,103.5552 63.21,110.561 Z" id="_359677736" fill="#FF7100"></path>
                <path d="M63.211,103.109 C60.6995,98.0892 60.2525,91.3961 63.211,84.2847 C66.1705,91.3961 65.7235,98.0892 63.211,103.109 Z" id="_359677848" fill="#E42023"></path>
                <path d="M63.209,120.952 C56.6336,110.3262 55.4633,96.1585 63.209,81.1053 C70.9573,96.1585 69.7871,110.3262 63.209,120.952 Z" id="_359688880" fill="#FFFFFF"></path>
                <path d="M63.209,117.764 C58.7433,108.8383 57.9486,96.9374 63.209,84.2927 C68.4712,96.9374 67.6764,108.8383 63.209,117.764 Z" id="_359697784" fill="#FE8E28"></path>
                <path d="M63.21,124.032 C60.7583,124.032 58.7682,122.0447 58.7682,119.5901 C58.7682,117.1385 60.7583,115.1512 63.21,115.1512 C65.6616,115.1512 67.6518,117.1385 67.6518,119.5901 C67.6518,122.0447 65.6616,124.032 63.21,124.032 Z" id="_359670400" fill="#FFFFFF"></path>
                <circle id="_359682608" fill="#FFFFFF" cx="63.212" cy="119.593" r="2.73271"></circle>
                <path d="M63.21,110.561 C59.7049,103.5552 59.0811,94.2143 63.21,84.2895 C67.3402,94.2143 66.7164,103.5552 63.21,110.561 Z" id="_359723096" fill="#FF7100"></path>
                <path d="M63.211,103.109 C60.6995,98.0892 60.2525,91.3961 63.211,84.2847 C66.1705,91.3961 65.7235,98.0892 63.211,103.109 Z" id="_359698960" fill="#E42023"></path>
                <path d="M22.5858,104.121 C25.4498,91.9578 34.6404,81.1123 50.7617,75.9451 C45.5963,92.0682 34.7507,101.2588 22.5858,104.121 Z" id="_359672136" fill="#303030"></path>
                <path d="M24.8398,101.867 C27.9935,92.3979 35.8468,83.4207 48.5076,78.1992 C43.2874,90.8613 34.3102,98.7145 24.8398,101.867 Z" id="_359694816" fill="#FE8E28"></path>
                <path d="M20.4083,106.3 C18.6747,104.5664 18.6727,101.7539 20.4083,100.0183 C22.1419,98.2847 24.9544,98.2868 26.688,100.0204 C28.4216,101.7539 28.4236,104.5664 26.69,106.3 C24.9544,108.0356 22.1419,108.0336 20.4083,106.3 Z" id="_359691344" fill="#303030"></path>
                <circle id="_359712064" fill="#DA251D" transform="translate(23.548400, 84.187030) rotate(-135.000000) translate(-23.548400, -84.187030) " cx="10.1303626" cy="70.7689921" r="2.73270574"></circle>
                <path d="M29.9337,96.775 C32.409,89.3427 38.5729,82.2965 48.5104,78.1982 C44.4131,88.1367 37.3669,94.3006 29.9337,96.775 Z" id="_359687536" fill="#FF7100"></path>
                <path d="M35.2037,91.506 C36.9773,86.1805 41.394,81.1318 48.5144,78.1952 C45.5786,85.3164 40.5298,89.733 35.2037,91.506 Z" id="_359706184" fill="#E42023"></path>
                <path d="M22.5858,104.121 C25.4498,91.9578 34.6404,81.1123 50.7617,75.9451 C45.5963,92.0682 34.7507,101.2588 22.5858,104.121 Z" id="_359698344" fill="#FFFFFF"></path>
                <path d="M24.8398,101.867 C27.9935,92.3979 35.8468,83.4207 48.5076,78.1992 C43.2874,90.8613 34.3102,98.7145 24.8398,101.867 Z" id="_359695712" fill="#FE8E28"></path>
                <path d="M20.4083,106.3 C18.6747,104.5664 18.6727,101.7539 20.4083,100.0183 C22.1419,98.2847 24.9544,98.2868 26.688,100.0204 C28.4216,101.7539 28.4236,104.5664 26.69,106.3 C24.9544,108.0356 22.1419,108.0336 20.4083,106.3 Z" id="_359718392" fill="#FFFFFF"></path>
                <circle id="_688860976" fill="#FFFFFF" transform="translate(23.548400, 84.187030) rotate(-135.000000) translate(-23.548400, -84.187030) " cx="10.1303626" cy="70.7689921" r="2.73270574"></circle>
                <path d="M29.9337,96.775 C32.409,89.3427 38.5729,82.2965 48.5104,78.1982 C44.4131,88.1367 37.3669,94.3006 29.9337,96.775 Z" id="_688900904" fill="#FF7100"></path>
                <path d="M35.2037,91.506 C36.9773,86.1805 41.394,81.1318 48.5144,78.1952 C45.5786,85.3164 40.5298,89.733 35.2037,91.506 Z" id="_688849216" fill="#E42023"></path>
                <path d="M5.7616,63.496 C16.3874,56.9205 30.5551,55.7502 45.6083,63.496 C30.5551,71.2442 16.3874,70.074 5.7616,63.496 Z" id="_688868648" fill="#303030"></path>
                <path d="M8.9493,63.496 C17.875,59.0303 29.7759,58.2356 42.4206,63.496 C29.7759,68.7582 17.875,67.9634 8.9493,63.496 Z" id="_688885280" fill="#FE8E28"></path>
                <path d="M2.6811,63.497 C2.6811,61.0453 4.6684,59.0552 7.123,59.0552 C9.5746,59.0552 11.5619,61.0453 11.5619,63.497 C11.5619,65.9486 9.5746,67.9388 7.123,67.9388 C4.6684,67.9388 2.6811,65.9486 2.6811,63.497 Z" id="_688907456" fill="#303030"></path>
                <circle id="_688852520" fill="#DA251D" transform="translate(20.538243, 50.079957) rotate(-90.000000) translate(-20.538243, -50.079957) " cx="7.1202" cy="36.6619138" r="2.7327069"></circle>
                <path d="M16.1519,63.497 C23.1577,59.9919 32.4986,59.3681 42.4234,63.497 C32.4986,67.6272 23.1577,67.0034 16.1519,63.497 Z" id="_359707528" fill="#FF7100"></path>
                <path d="M23.6042,63.498 C28.624,60.9865 35.3171,60.5395 42.4285,63.498 C35.3171,66.4575 28.624,66.0105 23.6042,63.498 Z" id="_359686640" fill="#E42023"></path>
                <path d="M5.7616,63.496 C16.3874,56.9205 30.5551,55.7502 45.6083,63.496 C30.5551,71.2442 16.3874,70.074 5.7616,63.496 Z" id="_359673032" fill="#FFFFFF"></path>
                <path d="M8.9493,63.496 C17.875,59.0303 29.7759,58.2356 42.4206,63.496 C29.7759,68.7582 17.875,67.9634 8.9493,63.496 Z" id="_359717384" fill="#FE8E28"></path>
                <path d="M2.6811,63.497 C2.6811,61.0453 4.6684,59.0552 7.123,59.0552 C9.5746,59.0552 11.5619,61.0453 11.5619,63.497 C11.5619,65.9486 9.5746,67.9388 7.123,67.9388 C4.6684,67.9388 2.6811,65.9486 2.6811,63.497 Z" id="_359679136" fill="#FFFFFF"></path>
                <circle id="_359700808" fill="#FFFFFF" transform="translate(20.538243, 50.079957) rotate(-90.000000) translate(-20.538243, -50.079957) " cx="7.1202" cy="36.6619138" r="2.7327069"></circle>
                <path d="M16.1519,63.497 C23.1577,59.9919 32.4986,59.3681 42.4234,63.497 C32.4986,67.6272 23.1577,67.0034 16.1519,63.497 Z" id="_359692072" fill="#FF7100"></path>
                <path d="M23.6042,63.498 C28.624,60.9865 35.3171,60.5395 42.4285,63.498 C35.3171,66.4575 28.624,66.0105 23.6042,63.498 Z" id="_359678688" fill="#E42023"></path>
                <path d="M22.5917,22.873 C34.7549,25.737 45.6004,34.9276 50.7676,51.0489 C34.6445,45.8835 25.4539,35.038 22.5917,22.873 Z" id="_359677512" fill="#303030"></path>
                <path d="M24.8458,25.127 C34.3149,28.2807 43.2921,36.134 48.5136,48.7948 C35.8515,43.5746 27.9983,34.5974 24.8458,25.127 Z" id="_359713464" fill="#FE8E28"></path>
                <path d="M20.4128,20.695 C22.1464,18.9614 24.9589,18.9594 26.6945,20.695 C28.4281,22.4286 28.426,25.2411 26.6924,26.9747 C24.9589,28.7083 22.1464,28.7103 20.4128,26.9767 C18.6772,25.2411 18.6792,22.4286 20.4128,20.695 Z" id="_359721752" fill="#303030"></path>
                <circle id="_359680984" fill="#DA251D" transform="translate(42.526470, 23.835000) rotate(-45.000000) translate(-42.526470, -23.835000) " cx="29.1084331" cy="10.4169626" r="2.73270574"></circle>
                <path d="M29.938,30.221 C37.3703,32.6963 44.4165,38.8603 48.5148,48.7977 C38.5763,44.7004 32.4124,37.6542 29.938,30.221 Z" id="_359720576" fill="#FF7100"></path>
                <path d="M35.2071,35.491 C40.5325,37.2646 45.5813,41.6813 48.5179,48.8017 C41.3967,45.8659 36.9801,40.8171 35.2071,35.491 Z" id="_359724552" fill="#E42023"></path>
                <path d="M22.5917,22.873 C34.7549,25.737 45.6004,34.9276 50.7676,51.0489 C34.6445,45.8835 25.4539,35.038 22.5917,22.873 Z" id="_359703664" fill="#FFFFFF"></path>
                <path d="M24.8458,25.127 C34.3149,28.2807 43.2921,36.134 48.5136,48.7948 C35.8515,43.5746 27.9983,34.5974 24.8458,25.127 Z" id="_359692352" fill="#FE8E28"></path>
                <path d="M20.4128,20.695 C22.1464,18.9614 24.9589,18.9594 26.6945,20.695 C28.4281,22.4286 28.426,25.2411 26.6924,26.9747 C24.9589,28.7083 22.1464,28.7103 20.4128,26.9767 C18.6772,25.2411 18.6792,22.4286 20.4128,20.695 Z" id="_359662392" fill="#FFFFFF"></path>
                <circle id="_359692464" fill="#FFFFFF" transform="translate(42.526470, 23.835000) rotate(-45.000000) translate(-42.526470, -23.835000) " cx="29.1084331" cy="10.4169626" r="2.73270574"></circle>
                <path d="M29.938,30.221 C37.3703,32.6963 44.4165,38.8603 48.5148,48.7977 C38.5763,44.7004 32.4124,37.6542 29.938,30.221 Z" id="_359715984" fill="#FF7100"></path>
                <path d="M35.2071,35.491 C40.5325,37.2646 45.5813,41.6813 48.5179,48.8017 C41.3967,45.8659 36.9801,40.8171 35.2071,35.491 Z" id="_359673816" fill="#E42023"></path>
                <path d="M81.635,107.552 C76.0742,102.7726 72.1656,94.9376 72.1611,84.8805 C79.3128,91.9519 82.1419,100.2388 81.635,107.552 Z" id="_359675944" fill="#969594"></path>
                <path d="M80.035,103.718 C77.1646,100.216 74.7209,94.971 73.7614,88.7156 C77.5411,93.7945 79.559,99.2178 80.035,103.718 Z" id="_359700304" fill="#E5ECFA"></path>
                <path d="M82.818,110.36 C80.5565,111.3067 77.9533,110.242 77.0055,107.9779 C76.0588,105.7164 77.1272,103.1147 79.3887,102.168 C81.6502,101.2213 84.2534,102.286 85.2001,104.5475 C86.148,106.8116 85.0795,109.4133 82.818,110.36 Z" id="_359719960" fill="#FFFFFF"></path>
                <circle id="_359705008" fill="#FFFFFF" transform="translate(63.547333, 99.068067) rotate(157.284910) translate(-63.547333, -99.068067) " cx="50.1292807" cy="85.6500153" r="2.73270872"></circle>
                <path d="M45.0898,107.676 C44.5374,100.3644 47.3137,92.0604 54.4219,84.9457 C54.4787,95.003 50.6195,102.8632 45.0898,107.676 Z" id="_359690112" fill="#969594"></path>
                <path d="M46.6695,103.833 C47.1161,99.327 49.0969,93.8902 52.8417,88.7885 C51.923,95.0525 49.515,100.3142 46.6695,103.833 Z" id="_359697504" fill="#E5ECFA"></path>
                <path d="M43.9412,110.498 C41.6727,109.5683 40.5847,106.9747 41.5155,104.7035 C42.4452,102.435 45.0404,101.3508 47.3089,102.2805 C49.5775,103.2102 50.6654,105.8038 49.7357,108.0723 C48.8049,110.3435 46.2097,111.4277 43.9412,110.498 Z" id="_359670120" fill="#FFFFFF"></path>
                <circle id="_359725112" fill="#FFFFFF" transform="translate(38.298527, 88.886875) rotate(-157.715150) translate(-38.298527, -88.886875) " cx="24.8804847" cy="75.4688324" r="2.73270676"></circle>
                <path d="M19.1608,81.922 C23.9402,76.3612 31.7752,72.4526 41.8323,72.4481 C34.7609,79.5998 26.474,82.4289 19.1608,81.922 Z" id="_359713576" fill="#969594"></path>
                <path d="M22.995,80.322 C26.497,77.4515 31.742,75.0078 37.9974,74.0483 C32.9185,77.828 27.4952,79.8459 22.995,80.322 Z" id="_359675720" fill="#E5ECFA"></path>
                <path d="M16.3532,83.105 C15.4065,80.8435 16.4712,78.2404 18.7353,77.2925 C20.9968,76.3458 23.5985,77.4143 24.5452,79.6758 C25.4919,81.9373 24.4272,84.5404 22.1657,85.4871 C19.9016,86.435 17.2999,85.3665 16.3532,83.105 Z" id="_359667040" fill="#FFFFFF"></path>
                <circle id="_359670456" fill="#FFFFFF" transform="translate(27.644533, 63.834333) rotate(-112.715090) translate(-27.644533, -63.834333) " cx="14.2264806" cy="50.4162807" r="2.73270872"></circle>
                <path d="M19.037,45.377 C26.3486,44.8246 34.6526,47.6009 41.7673,54.7091 C31.71,54.7659 23.8498,50.9067 19.037,45.377 Z" id="_359689160" fill="#969594"></path>
                <path d="M22.8797,46.956 C27.3857,47.4026 32.8225,49.3834 37.9242,53.1282 C31.6602,52.2095 26.3985,49.8015 22.8797,46.956 Z" id="_688879288" fill="#E5ECFA"></path>
                <path d="M16.2151,44.228 C17.1448,41.9595 19.7384,40.8716 22.0096,41.8023 C24.2781,42.732 25.3623,45.3272 24.4326,47.5957 C23.5029,49.8643 20.9093,50.9522 18.6408,50.0225 C16.3696,49.0917 15.2854,46.4966 16.2151,44.228 Z" id="_688902304" fill="#FFFFFF"></path>
                <circle id="_688856496" fill="#FFFFFF" transform="translate(37.826125, 38.585427) rotate(-67.715150) translate(-37.826125, -38.585427) " cx="24.4080828" cy="25.1673847" r="2.73270676"></circle>
                <path d="M44.791,19.448 C50.3518,24.2274 54.2603,32.0624 54.2649,42.1195 C47.1132,35.0481 44.2841,26.7612 44.791,19.448 Z" id="_688876264" fill="#969594"></path>
                <path d="M46.3912,23.282 C49.2617,26.784 51.7054,32.029 52.6649,38.2844 C48.8852,33.2055 46.8673,27.7822 46.3912,23.282 Z" id="_688903368" fill="#E5ECFA"></path>
                <path d="M43.6078,16.64 C45.8693,15.6933 48.4725,16.758 49.4204,19.0221 C50.3671,21.2836 49.2986,23.8853 47.0371,24.832 C44.7756,25.7787 42.1725,24.714 41.2257,22.4525 C40.2779,20.1884 41.3463,17.5867 43.6078,16.64 Z" id="_688887184" fill="#FFFFFF"></path>
                <circle id="_688911320" fill="#FFFFFF" transform="translate(62.879167, 27.930933) rotate(-22.715090) translate(-62.879167, -27.930933) " cx="49.4611152" cy="14.5128806" r="2.73270872"></circle>
            </g>
        </g>
    </g>
</svg>