<?xml version="1.0" encoding="UTF-8"?>
<svg id="Laag_2" data-name="Laag 2" xmlns="http://www.w3.org/2000/svg" width="58.76" height="67.85" viewBox="0 0 58.76 67.85">
  <defs>
    <style>
      .cls-1 {
        fill: #5956e4;
      }
    </style>
  </defs>
  <g id="b">
    <g id="c">
      <g>
        <path class="cls-1" d="m52.05,26.97h0s0-4.27,0-4.27l-22.67-13.09L6.71,22.7v.2h0s0,4.27,0,4.27l3.91,2.26-3.91,2.26v.2h0s0,4.27,0,4.27l3.91,2.26-3.91,2.26v.2h0s0,4.27,0,4.27l22.67,13.09,22.67-13.09v-.2h0s0-4.27,0-4.27l-3.91-2.26,3.91-2.26v-.2h0s0-4.27,0-4.27l-3.91-2.26,3.91-2.26v-.2h0Zm-41.56,1.08c-.28-.36-.28-.83,0-1.04.28-.21.73-.09,1,.27s.28.83,0,1.04c-.28.21-.73.09-1-.27Zm0,8.85c-.28-.36-.28-.83,0-1.04.28-.21.73-.09,1,.27s.28.83,0,1.04c-.28.21-.73.09-1-.27h0Zm1,9.17c-.28.21-.73.09-1-.27-.28-.36-.28-.83,0-1.04.28-.21.73-.09,1,.27.28.36.28.83,0,1.04Zm3.19,1.78c-.28.21-.73.09-1-.27-.28-.36-.28-.83,0-1.04.28-.21.73-.09,1,.27.28.36.28.83,0,1.04Zm33.84-4.95l-19.15,11.06-19.15-11.06,4.08-2.36,15.07,8.7,15.07-8.7,4.08,2.36h0Zm-34.85-5.26c.28-.21.73-.09,1,.27.28.36.28.83,0,1.04-.28.21-.73.09-1-.27-.28-.36-.28-.83,0-1.04Zm34.85-3.72l-19.15,11.06-19.15-11.06,4.08-2.36,15.07,8.7,15.07-8.7s4.08,2.36,4.08,2.36Zm-34.85-5.12c.28-.21.73-.09,1,.27.28.36.28.83,0,1.04-.28.21-.73.09-1-.27-.28-.36-.28-.83,0-1.04Zm15.7,7.2l-19.15-11.06,19.15-11.06,19.15,11.06-19.15,11.06h0Z"/>
        <path class="cls-1" d="m58.76,16.96v33.92s-29.38,16.96-29.38,16.96L0,50.89V16.96S29.38,0,29.38,0c0,0,29.38,16.96,29.38,16.96Zm-3.76,31.75v-29.58S29.38,4.34,29.38,4.34L3.76,19.13v29.58l25.62,14.79,25.62-14.79Z"/>
      </g>
    </g>
  </g>
</svg>